# xmcd
#
# Track frame offsets:
#	187
#	9255
#	27617
#	53645
#	68900
#	89837
#	127980
#	151170
#	180017
#	197527
#	222145
#
# Disc length: 3214 seconds
#
# Revision: 2
# Processed by: cddbd v1.4PL0 Copyright (c) Steve Scherf et al.
# Submitted via: EasyCDDAExtractor 5.0.4.1
#
DISCID=860c8c0b
DTITLE=Bugs Henderson and the Shufflekings - American Music
DYEAR=1988
DGENRE=Blues
TTITLE0=The Blackhawk Walk
TTITLE1=Dance Till the Moon Go Down
TTITLE2=Tain't Nobody's Bizness If I Do
TTITLE3=Back To Louisiana
TTITLE4=Big Legged Woman
TTITLE5=Honky Tonk
TTITLE6=She Thinks I Still Care
TTITLE7=Rocket In My Pocket
TTITLE8=Tore Down
TTITLE9=American Music
TTITLE10=Shuffle King
EXTD=
EXTT0=
EXTT1=
EXTT2=
EXTT3=
EXTT4=
EXTT5=
EXTT6=
EXTT7=
EXTT8=
EXTT9=
EXTT10=
PLAYORDER=
